HIERARCHY
ROOT mixamorig:Hips
{
	OFFSET -0.000008 104.274872 1.554316
	CHANNELS 6 Xposition Yposition Zposition Xrotation Yrotation Zrotation
	JOINT mixamorig:Spine
	{
		OFFSET -0.000005 10.181595 0.131519
		CHANNELS 6 Xposition Yposition Zposition Xrotation Yrotation Zrotation
		JOINT mixamorig:Spine1
		{
			OFFSET -0.000000 9.893959 -1.470707
			CHANNELS 6 Xposition Yposition Zposition Xrotation Yrotation Zrotation
			JOINT mixamorig:Spine2
			{
				OFFSET -0.000000 9.220757 -1.370641
				CHANNELS 6 Xposition Yposition Zposition Xrotation Yrotation Zrotation
				JOINT mixamorig:Neck
				{
					OFFSET 0.000001 16.740417 -2.049036
					CHANNELS 6 Xposition Yposition Zposition Xrotation Yrotation Zrotation
					JOINT mixamorig:Head
					{
						OFFSET 0.000000 9.617874 1.685006
						CHANNELS 6 Xposition Yposition Zposition Xrotation Yrotation Zrotation
						JOINT mixamorig:HeadTop_End
						{
							OFFSET 0.000002 22.037354 7.501101
							CHANNELS 6 Xposition Yposition Zposition Xrotation Yrotation Zrotation
							End Site
							{
								OFFSET 0.000168 2310.654297 -282.823242
							}
						}
					}
				}
				JOINT mixamorig:RightShoulder
				{
					OFFSET -4.569970 11.014908 -2.160885
					CHANNELS 6 Xposition Yposition Zposition Xrotation Yrotation Zrotation
					JOINT mixamorig:RightArm
					{
						OFFSET -10.592851 -0.524811 -2.232101
						CHANNELS 6 Xposition Yposition Zposition Xrotation Yrotation Zrotation
						JOINT mixamorig:RightForeArm
						{
							OFFSET -27.841511 0.000031 -0.000004
							CHANNELS 6 Xposition Yposition Zposition Xrotation Yrotation Zrotation
							JOINT mixamorig:RightHand
							{
								OFFSET -28.328831 -0.000015 0.000015
								CHANNELS 6 Xposition Yposition Zposition Xrotation Yrotation Zrotation
								JOINT mixamorig:RightHandThumb1
								{
									OFFSET -2.464806 -1.573990 2.681852
									CHANNELS 6 Xposition Yposition Zposition Xrotation Yrotation Zrotation
									JOINT mixamorig:RightHandThumb2
									{
										OFFSET -3.215179 -1.872803 1.924282
										CHANNELS 6 Xposition Yposition Zposition Xrotation Yrotation Zrotation
										JOINT mixamorig:RightHandThumb3
										{
											OFFSET -2.654831 -1.527969 1.512609
											CHANNELS 6 Xposition Yposition Zposition Xrotation Yrotation Zrotation
											JOINT mixamorig:RightHandThumb4
											{
												OFFSET -2.018814 -1.152008 1.108052
												CHANNELS 6 Xposition Yposition Zposition Xrotation Yrotation Zrotation
												End Site
												{
													OFFSET -188.809540 -114.533607 132.431396
												}
											}
										}
									}
								}
								JOINT mixamorig:RightHandIndex1
								{
									OFFSET -9.108284 -0.517868 2.259835
									CHANNELS 6 Xposition Yposition Zposition Xrotation Yrotation Zrotation
									JOINT mixamorig:RightHandIndex2
									{
										OFFSET -3.699989 0.000000 0.001215
										CHANNELS 6 Xposition Yposition Zposition Xrotation Yrotation Zrotation
										JOINT mixamorig:RightHandIndex3
										{
											OFFSET -2.850006 0.000031 -0.000522
											CHANNELS 6 Xposition Yposition Zposition Xrotation Yrotation Zrotation
											JOINT mixamorig:RightHandIndex4
											{
												OFFSET -2.772186 -0.000015 -0.000020
												CHANNELS 6 Xposition Yposition Zposition Xrotation Yrotation Zrotation
												End Site
												{
													OFFSET -277.218445 0.000000 -0.050231
												}
											}
										}
									}
								}
								JOINT mixamorig:RightHandMiddle1
								{
									OFFSET -9.532516 -0.000031 -0.000023
									CHANNELS 6 Xposition Yposition Zposition Xrotation Yrotation Zrotation
									JOINT mixamorig:RightHandMiddle2
									{
										OFFSET -3.700005 -0.000015 0.003713
										CHANNELS 6 Xposition Yposition Zposition Xrotation Yrotation Zrotation
										JOINT mixamorig:RightHandMiddle3
										{
											OFFSET -2.949974 0.000015 -0.002054
											CHANNELS 6 Xposition Yposition Zposition Xrotation Yrotation Zrotation
											JOINT mixamorig:RightHandMiddle4
											{
												OFFSET -2.946640 0.000000 -0.000156
												CHANNELS 6 Xposition Yposition Zposition Xrotation Yrotation Zrotation
												End Site
												{
													OFFSET -294.664337 0.000000 -0.113670
												}
											}
										}
									}
								}
								JOINT mixamorig:RightHandRing1
								{
									OFFSET -9.103600 -0.043076 -1.865134
									CHANNELS 6 Xposition Yposition Zposition Xrotation Yrotation Zrotation
									JOINT mixamorig:RightHandRing2
									{
										OFFSET -3.379288 0.000000 -0.001055
										CHANNELS 6 Xposition Yposition Zposition Xrotation Yrotation Zrotation
										JOINT mixamorig:RightHandRing3
										{
											OFFSET -2.889687 -0.000015 0.000379
											CHANNELS 6 Xposition Yposition Zposition Xrotation Yrotation Zrotation
											JOINT mixamorig:RightHandRing4
											{
												OFFSET -2.638809 -0.000015 0.000941
												CHANNELS 6 Xposition Yposition Zposition Xrotation Yrotation Zrotation
												End Site
												{
													OFFSET -263.880371 0.000000 0.516020
												}
											}
										}
									}
								}
								JOINT mixamorig:RightHandPinky1
								{
									OFFSET -8.076683 -0.486710 -3.806280
									CHANNELS 6 Xposition Yposition Zposition Xrotation Yrotation Zrotation
									JOINT mixamorig:RightHandPinky2
									{
										OFFSET -3.600014 -0.000015 -0.003747
										CHANNELS 6 Xposition Yposition Zposition Xrotation Yrotation Zrotation
										JOINT mixamorig:RightHandPinky3
										{
											OFFSET -2.099983 0.000000 -0.005739
											CHANNELS 6 Xposition Yposition Zposition Xrotation Yrotation Zrotation
											JOINT mixamorig:RightHandPinky4
											{
												OFFSET -2.115768 -0.000031 -0.003680
												CHANNELS 6 Xposition Yposition Zposition Xrotation Yrotation Zrotation
												End Site
												{
													OFFSET -211.577087 0.000000 -0.350686
												}
											}
										}
									}
								}
							}
						}
					}
				}
				JOINT mixamorig:LeftShoulder
				{
					OFFSET 4.570447 11.014725 -2.160855
					CHANNELS 6 Xposition Yposition Zposition Xrotation Yrotation Zrotation
					JOINT mixamorig:LeftArm
					{
						OFFSET 10.592371 -0.524597 -2.232119
						CHANNELS 6 Xposition Yposition Zposition Xrotation Yrotation Zrotation
						JOINT mixamorig:LeftForeArm
						{
							OFFSET 27.841532 -0.000031 0.000026
							CHANNELS 6 Xposition Yposition Zposition Xrotation Yrotation Zrotation
							JOINT mixamorig:LeftHand
							{
								OFFSET 28.328846 -0.000061 0.000022
								CHANNELS 6 Xposition Yposition Zposition Xrotation Yrotation Zrotation
								JOINT mixamorig:LeftHandThumb1
								{
									OFFSET 2.466141 -1.576172 2.681732
									CHANNELS 6 Xposition Yposition Zposition Xrotation Yrotation Zrotation
									JOINT mixamorig:LeftHandThumb2
									{
										OFFSET 3.217812 -1.872070 1.916482
										CHANNELS 6 Xposition Yposition Zposition Xrotation Yrotation Zrotation
										JOINT mixamorig:LeftHandThumb3
										{
											OFFSET 2.656029 -1.528778 1.514513
											CHANNELS 6 Xposition Yposition Zposition Xrotation Yrotation Zrotation
											JOINT mixamorig:LeftHandThumb4
											{
												OFFSET 2.020889 -1.154053 1.115139
												CHANNELS 6 Xposition Yposition Zposition Xrotation Yrotation Zrotation
												End Site
												{
													OFFSET 190.885437 -115.081749 130.048782
												}
											}
										}
									}
								}
								JOINT mixamorig:LeftHandIndex1
								{
									OFFSET 9.109314 -0.518021 2.259871
									CHANNELS 6 Xposition Yposition Zposition Xrotation Yrotation Zrotation
									JOINT mixamorig:LeftHandIndex2
									{
										OFFSET 3.699989 0.000000 -0.000322
										CHANNELS 6 Xposition Yposition Zposition Xrotation Yrotation Zrotation
										JOINT mixamorig:LeftHandIndex3
										{
											OFFSET 2.850006 0.000000 0.000352
											CHANNELS 6 Xposition Yposition Zposition Xrotation Yrotation Zrotation
											JOINT mixamorig:LeftHandIndex4
											{
												OFFSET 2.774864 -0.000031 -0.000027
												CHANNELS 6 Xposition Yposition Zposition Xrotation Yrotation Zrotation
												End Site
												{
													OFFSET 277.486267 0.000000 -0.009857
												}
											}
										}
									}
								}
								JOINT mixamorig:LeftHandMiddle1
								{
									OFFSET 9.533394 0.000061 0.000044
									CHANNELS 6 Xposition Yposition Zposition Xrotation Yrotation Zrotation
									JOINT mixamorig:LeftHandMiddle2
									{
										OFFSET 3.699989 -0.000015 -0.000231
										CHANNELS 6 Xposition Yposition Zposition Xrotation Yrotation Zrotation
										JOINT mixamorig:LeftHandMiddle3
										{
											OFFSET 2.949997 -0.000015 -0.000059
											CHANNELS 6 Xposition Yposition Zposition Xrotation Yrotation Zrotation
											JOINT mixamorig:LeftHandMiddle4
											{
												OFFSET 2.952896 0.000031 0.000063
												CHANNELS 6 Xposition Yposition Zposition Xrotation Yrotation Zrotation
												End Site
												{
													OFFSET 295.289337 0.000000 0.022810
												}
											}
										}
									}
								}
								JOINT mixamorig:LeftHandRing1
								{
									OFFSET 9.104523 -0.042999 -1.865074
									CHANNELS 6 Xposition Yposition Zposition Xrotation Yrotation Zrotation
									JOINT mixamorig:LeftHandRing2
									{
										OFFSET 3.150009 -0.000031 0.000043
										CHANNELS 6 Xposition Yposition Zposition Xrotation Yrotation Zrotation
										JOINT mixamorig:LeftHandRing3
										{
											OFFSET 2.949982 -0.000015 0.000040
											CHANNELS 6 Xposition Yposition Zposition Xrotation Yrotation Zrotation
											JOINT mixamorig:LeftHandRing4
											{
												OFFSET 2.644348 0.000000 0.000057
												CHANNELS 6 Xposition Yposition Zposition Xrotation Yrotation Zrotation
												End Site
												{
													OFFSET 264.434631 0.000000 0.012105
												}
											}
										}
									}
								}
								JOINT mixamorig:LeftHandPinky1
								{
									OFFSET 8.077789 -0.486847 -3.806259
									CHANNELS 6 Xposition Yposition Zposition Xrotation Yrotation Zrotation
									JOINT mixamorig:LeftHandPinky2
									{
										OFFSET 3.599953 0.000031 0.014727
										CHANNELS 6 Xposition Yposition Zposition Xrotation Yrotation Zrotation
										JOINT mixamorig:LeftHandPinky3
										{
											OFFSET 2.100021 0.000015 0.007705
											CHANNELS 6 Xposition Yposition Zposition Xrotation Yrotation Zrotation
											JOINT mixamorig:LeftHandPinky4
											{
												OFFSET 2.125504 0.000031 0.007517
												CHANNELS 6 Xposition Yposition Zposition Xrotation Yrotation Zrotation
												End Site
												{
													OFFSET 212.550781 0.000000 0.625752
												}
											}
										}
									}
								}
							}
						}
					}
				}
			}
		}
	}
	JOINT mixamorig:RightUpLeg
	{
		OFFSET -8.207787 -6.751648 -1.599560
		CHANNELS 6 Xposition Yposition Zposition Xrotation Yrotation Zrotation
		JOINT mixamorig:RightLeg
		{
			OFFSET -0.000002 -44.370117 0.345942
			CHANNELS 6 Xposition Yposition Zposition Xrotation Yrotation Zrotation
			JOINT mixamorig:RightFoot
			{
				OFFSET 0.000003 -44.423679 -3.043532
				CHANNELS 6 Xposition Yposition Zposition Xrotation Yrotation Zrotation
				JOINT mixamorig:RightToeBase
				{
					OFFSET -0.000002 -8.728671 10.710558
					CHANNELS 6 Xposition Yposition Zposition Xrotation Yrotation Zrotation
					JOINT mixamorig:RightToe_End
					{
						OFFSET -0.000001 -0.000679 9.278119
						CHANNELS 6 Xposition Yposition Zposition Xrotation Yrotation Zrotation
						End Site
						{
							OFFSET 0.000000 -0.067690 927.812134
						}
					}
				}
			}
		}
	}
	JOINT mixamorig:LeftUpLeg
	{
		OFFSET 8.207793 -6.751686 -1.599556
		CHANNELS 6 Xposition Yposition Zposition Xrotation Yrotation Zrotation
		JOINT mixamorig:LeftLeg
		{
			OFFSET -0.000004 -44.370014 0.346954
			CHANNELS 6 Xposition Yposition Zposition Xrotation Yrotation Zrotation
			JOINT mixamorig:LeftFoot
			{
				OFFSET -0.000001 -44.423672 -3.044401
				CHANNELS 6 Xposition Yposition Zposition Xrotation Yrotation Zrotation
				JOINT mixamorig:LeftToeBase
				{
					OFFSET -0.000002 -8.728669 10.710558
					CHANNELS 6 Xposition Yposition Zposition Xrotation Yrotation Zrotation
					JOINT mixamorig:LeftToe_End
					{
						OFFSET -0.000003 -0.000679 9.278133
						CHANNELS 6 Xposition Yposition Zposition Xrotation Yrotation Zrotation
						End Site
						{
							OFFSET 0.000000 -0.068021 927.813477
						}
					}
				}
			}
		}
	}
}
MOTION
Frames: 3
Frame Time: 0.033333
0.000006 104.270477 1.554256 0.000010 0.000003 -0.000113 -0.000005 10.181587 0.131522 0.000001 -0.000003 0.000084 -0.000000 9.893967 -1.470711 0.000001 0.000000 -0.000000 -0.000000 9.220802 -1.370642 0.000000 -0.000000 -0.000000 0.000001 16.740433 -2.049030 0.000000 -0.000000 -0.000000 0.000000 9.617859 1.685014 0.000000 0.000000 0.000000 0.000002 22.037384 7.501101 0.000000 -0.000000 0.000000 -4.569968 11.014880 -2.160881 0.000008 0.000001 -0.000038 -10.592878 -0.524702 -2.231990 72.170770 13.266545 -9.689236 -27.841528 0.000021 0.000536 -56.049379 115.736476 80.559472 -28.328827 0.000006 0.000019 -0.000322 -0.000045 0.000006 -2.464448 -1.573730 2.682329 -49.538501 -172.665079 -14.442182 -3.215285 -1.872633 1.924678 157.817477 29.029315 -12.104313 -2.654935 -1.527882 1.513107 148.031264 25.688686 -46.747850 -2.018816 -1.151989 1.108077 -0.000006 -0.000003 0.000004 -9.108372 -0.517565 2.260074 87.909432 17.511311 -16.938574 -3.700074 0.000315 0.001449 82.748432 15.464735 -13.618786 -2.850093 0.000341 -0.000329 81.501027 12.702029 -10.955687 -2.772171 0.000001 -0.000023 0.000002 0.000001 0.000000 -9.532586 0.000281 0.000200 86.910237 14.474013 -13.854276 -3.700106 0.000330 0.003931 84.983720 12.250335 -11.141931 -2.950055 0.000314 -0.001870 83.765761 12.607238 -11.307499 -2.946609 0.000001 -0.000160 -0.000003 0.000003 -0.000000 -9.103690 -0.042746 -1.864898 86.185349 15.761401 -14.715699 -3.379318 0.000325 -0.000852 85.779164 8.748599 -8.144854 -2.889756 0.000341 0.000585 86.460762 6.975951 -6.601610 -2.638818 -0.000001 0.000945 -0.000000 -0.000001 0.000000 -8.076752 -0.486382 -3.806050 82.097685 16.579456 -14.330012 -3.600052 0.000257 -0.003547 84.486776 7.897860 -6.853656 -2.100018 0.000314 -0.005536 82.857940 5.457501 -4.623812 -2.115775 -0.000038 -0.003684 0.000001 0.000000 -0.000003 4.570446 11.014691 -2.160851 -0.000018 0.000010 -0.000021 10.592366 -0.524515 -2.232300 69.523054 2.279405 -1.581992 27.841854 0.000102 -0.000205 109.786173 -65.104065 84.481818 28.328817 -0.000028 0.000027 0.000018 -0.000089 -0.000000 2.465862 -1.576054 2.681873 -53.401831 175.021248 28.329427 3.217790 -1.871734 1.916356 153.160217 -31.352884 -3.389660 2.656091 -1.528626 1.514455 141.311437 -27.665871 42.134815 2.020902 -1.154053 1.115137 0.000005 0.000003 0.000004 9.109363 -0.517856 2.259720 83.554865 -14.390541 12.859138 3.700052 0.000127 -0.000467 80.498048 -16.650314 14.138127 2.850049 0.000178 0.000196 79.413373 -14.173734 11.787567 2.774869 -0.000029 -0.000030 -0.000000 0.000000 -0.000002 9.533452 0.000226 -0.000096 83.278789 -13.360659 11.882159 3.700064 0.000162 -0.000381 85.186235 -15.093779 13.885947 2.950071 0.000169 -0.000205 86.675743 -18.162323 17.156607 2.952873 -0.000034 0.000063 0.000001 -0.000000 -0.000000 9.104568 -0.042843 -1.865232 84.219409 -12.802835 11.582695 3.150062 0.000208 -0.000075 88.606316 -12.054946 11.769053 2.950017 0.000171 -0.000074 89.766745 -13.965290 13.910905 2.644333 0.000016 0.000061 0.000000 0.000001 -0.000000 8.077841 -0.486694 -3.806407 78.877278 -14.571536 12.483564 3.599987 0.000186 0.014561 82.235778 -11.431805 10.423497 2.100048 0.000178 0.007549 86.090491 -10.740415 10.479269 2.125493 -0.000016 0.007515 0.000000 0.000003 -0.000002 -8.207786 -6.751667 -1.599560 -0.077001 -0.000003 0.000080 -0.000002 -44.370110 0.345938 0.153719 -0.000000 -0.000000 0.000000 -44.423679 -3.043532 -0.076700 0.000000 -0.000002 -0.000006 -8.728667 10.710559 -0.000009 -0.000000 -0.000000 -0.000001 -0.000679 9.278123 0.000000 -0.000000 -0.000000 8.207792 -6.751710 -1.599556 -0.074518 -0.000003 0.000081 -0.000002 -44.370014 0.346960 0.148822 0.000002 0.000000 -0.000001 -44.423664 -3.044403 -0.074314 0.000000 -0.000002 -0.000004 -8.728671 10.710558 0.000007 -0.000000 -0.000000 0.000000 -0.000680 9.278137 -0.000000 0.000000 -0.000001 
0.000006 104.270477 1.554256 0.000010 0.000003 -0.000113 -0.000005 10.181587 0.131522 0.000001 -0.000003 0.000084 -0.000000 9.893967 -1.470711 0.000001 0.000000 -0.000000 -0.000000 9.220802 -1.370642 0.000000 -0.000000 -0.000000 0.000001 16.740433 -2.049030 0.000000 -0.000000 -0.000000 0.000000 9.617859 1.685014 0.000000 0.000000 0.000000 0.000002 22.037384 7.501101 0.000000 -0.000000 0.000000 -4.569968 11.014880 -2.160881 0.000008 0.000001 -0.000038 -10.592876 -0.524698 -2.231989 72.551717 13.395833 -9.852226 -27.841515 0.000014 0.000524 -55.562926 116.494696 80.812442 -28.328833 0.000004 0.000026 -0.000319 -0.000044 0.000005 -2.464443 -1.573777 2.682341 -47.910294 -169.546237 -9.548411 -3.215288 -1.872641 1.924696 158.164245 29.746075 -8.367178 -2.654938 -1.527905 1.513102 144.712352 26.664294 -46.247556 -2.018830 -1.151999 1.108065 -0.000000 -0.000003 0.000000 -9.108408 -0.517558 2.260064 85.633763 17.262781 -16.055854 -3.700070 0.000315 0.001458 84.229039 14.129682 -12.763909 -2.850078 0.000358 -0.000307 83.256611 11.009300 -9.789735 -2.772167 -0.000014 -0.000018 -0.000001 -0.000000 -0.000001 -9.532590 0.000267 0.000191 85.737077 16.196600 -15.180850 -3.700072 0.000317 0.003940 87.030769 12.037621 -11.343613 -2.950048 0.000333 -0.001818 89.691940 11.643147 -11.574067 -2.946611 -0.000014 -0.000160 0.000001 -0.000001 0.000001 -9.103708 -0.042757 -1.864911 83.516671 17.594550 -15.693048 -3.379313 0.000326 -0.000839 86.062371 8.692154 -8.132422 -2.889741 0.000361 0.000618 93.206032 6.201693 -6.605695 -2.638798 -0.000001 0.000935 -0.000001 0.000000 0.000001 -8.076758 -0.486394 -3.806049 77.595580 18.041166 -14.422843 -3.600031 0.000259 -0.003543 82.664188 7.707718 -6.471466 -2.100012 0.000344 -0.005513 87.737291 4.621015 -4.234402 -2.115768 -0.000056 -0.003678 0.000001 -0.000002 -0.000003 4.570446 11.014691 -2.160851 -0.000018 0.000010 -0.000021 10.592359 -0.524542 -2.232280 70.446469 12.149895 -8.594272 27.841837 0.000095 -0.000208 107.639458 -66.671696 83.935484 28.328825 -0.000027 0.000025 0.000020 -0.000089 -0.000000 2.466015 -1.576157 2.681910 -37.068970 161.820760 -15.943948 3.217842 -1.871791 1.916378 160.213302 -27.845242 17.749963 2.656095 -1.528642 1.514466 142.655153 -26.786882 50.764493 2.020890 -1.154072 1.115153 0.000001 0.000006 0.000006 9.109381 -0.517845 2.259726 86.171921 -17.592462 16.459007 3.700032 0.000150 -0.000456 82.576611 -13.022347 11.461874 2.850047 0.000174 0.000207 80.951095 -10.684310 9.123470 2.774876 -0.000030 -0.000029 -0.000001 -0.000001 -0.000002 9.533465 0.000229 -0.000091 86.227669 -17.356417 16.256588 3.700047 0.000185 -0.000383 87.330409 -11.909120 11.367859 2.950035 0.000179 -0.000212 87.772876 -11.195545 10.773954 2.952882 -0.000016 0.000065 0.000000 -0.000001 -0.000001 9.104591 -0.042820 -1.865214 86.981995 -16.390700 15.561734 3.150046 0.000189 -0.000089 89.793294 -11.072628 11.034786 2.950024 0.000180 -0.000090 91.492112 -9.530603 9.782629 2.644335 0.000015 0.000060 -0.000000 -0.000003 0.000003 8.077851 -0.486712 -3.806390 84.001068 -18.367501 17.104841 3.600002 0.000210 0.014585 84.455289 -14.538047 13.677120 2.100034 0.000200 0.007543 86.774316 -10.052041 9.949603 2.125518 -0.000014 0.007514 0.000002 0.000001 -0.000003 -8.207786 -6.751667 -1.599560 -0.077001 -0.000003 0.000080 -0.000002 -44.370110 0.345938 0.153719 -0.000000 -0.000000 0.000000 -44.423679 -3.043532 -0.076700 0.000000 -0.000002 -0.000006 -8.728667 10.710559 -0.000009 -0.000000 -0.000000 -0.000001 -0.000679 9.278123 0.000000 -0.000000 -0.000000 8.207792 -6.751710 -1.599556 -0.074518 -0.000003 0.000081 -0.000002 -44.370014 0.346960 0.148822 0.000002 0.000000 -0.000001 -44.423664 -3.044403 -0.074314 0.000000 -0.000002 -0.000004 -8.728671 10.710558 0.000007 -0.000000 -0.000000 0.000000 -0.000680 9.278137 -0.000000 0.000000 -0.000001 
0.000006 104.270477 1.554256 0.000010 0.000003 -0.000113 -0.000005 10.181587 0.131522 0.000001 -0.000003 0.000084 -0.000000 9.893967 -1.470711 0.000001 0.000000 -0.000000 -0.000000 9.220802 -1.370642 0.000000 -0.000000 -0.000000 0.000001 16.740433 -2.049030 0.000000 -0.000000 -0.000000 0.000000 9.617859 1.685014 0.000000 0.000000 0.000000 0.000002 22.037384 7.501101 0.000000 -0.000000 0.000000 -4.569968 11.014880 -2.160881 0.000008 0.000001 -0.000038 -10.592882 -0.524746 -2.231937 72.478143 24.101060 -17.785524 -27.841520 0.000017 0.000540 -55.023820 111.821630 75.162093 -28.328815 0.000006 0.000030 -0.000322 -0.000046 0.000008 -2.464453 -1.573729 2.682319 -51.118054 -173.735724 -19.643009 -3.215278 -1.872634 1.924683 157.285910 30.036785 -6.622042 -2.654945 -1.527875 1.513097 144.621442 26.780190 -45.099244 -2.018827 -1.151983 1.108063 0.000000 -0.000003 0.000002 -9.108391 -0.517564 2.260051 85.409357 16.852863 -15.613985 -3.700084 0.000319 0.001447 83.957587 14.344432 -12.897485 -2.850073 0.000353 -0.000332 83.221135 11.075896 -9.842934 -2.772162 -0.000014 -0.000015 -0.000000 0.000001 -0.000001 -9.532592 0.000269 0.000201 85.635402 15.293958 -14.314364 -3.700075 0.000336 0.003943 86.899882 11.553728 -10.859471 -2.950069 0.000317 -0.001825 89.709214 11.301092 -11.237205 -2.946619 0.000002 -0.000158 -0.000001 -0.000001 0.000001 -9.103704 -0.042768 -1.864911 83.674810 16.533286 -14.782273 -3.379330 0.000325 -0.000844 86.115011 8.211579 -7.690442 -2.889751 0.000359 0.000607 93.598542 5.936828 -6.368964 -2.638811 -0.000015 0.000944 0.000001 0.000000 -0.000002 -8.076740 -0.486403 -3.806087 77.124775 16.750253 -13.266912 -3.600034 0.000296 -0.003555 82.131010 6.877329 -5.690374 -2.100010 0.000317 -0.005493 87.817279 4.019049 -3.662662 -2.115763 -0.000014 -0.003681 0.000002 0.000004 -0.000005 4.570446 11.014691 -2.160851 -0.000018 0.000010 -0.000021 10.592367 -0.524515 -2.232295 70.079626 2.297965 -1.611467 27.841837 0.000096 -0.000186 107.619288 -68.147536 85.506134 28.328846 -0.000028 0.000021 0.000022 -0.000089 0.000000 2.466190 -1.576128 2.681880 -1.122985 155.750784 -76.457862 3.217812 -1.871777 1.916373 163.272694 -28.854588 12.921061 2.656116 -1.528622 1.514459 148.410243 -25.586220 45.436519 2.020886 -1.154060 1.115150 0.000003 0.000003 0.000008 9.109405 -0.517839 2.259739 94.192393 -19.087568 20.494575 3.700046 0.000173 -0.000465 89.765495 -14.650959 14.608899 2.850048 0.000201 0.000201 87.491185 -12.053915 11.539662 2.774873 -0.000032 -0.000025 0.000000 -0.000000 0.000003 9.533478 0.000234 -0.000074 91.477960 -18.134972 18.591469 3.700056 0.000194 -0.000377 93.417658 -12.702484 13.473889 2.950054 0.000217 -0.000191 93.273200 -11.084517 11.735193 2.952897 -0.000012 0.000069 0.000001 0.000001 -0.000000 9.104609 -0.042839 -1.865210 91.371122 -17.713375 18.137397 3.150044 0.000213 -0.000093 94.282026 -13.534544 14.576920 2.950031 0.000207 -0.000084 94.169621 -10.524193 11.316236 2.644323 0.000030 0.000054 -0.000001 -0.000000 0.000001 8.077863 -0.486703 -3.806389 87.113961 -19.665211 19.290695 3.600012 0.000186 0.014574 85.275124 -16.654346 15.837404 2.100030 0.000203 0.007540 85.942638 -11.225625 10.907506 2.125506 -0.000016 0.007518 0.000001 0.000000 0.000002 -8.207786 -6.751667 -1.599560 -0.077001 -0.000003 0.000080 -0.000002 -44.370110 0.345938 0.153719 -0.000000 -0.000000 0.000000 -44.423679 -3.043532 -0.076700 0.000000 -0.000002 -0.000006 -8.728667 10.710559 -0.000009 -0.000000 -0.000000 -0.000001 -0.000679 9.278123 0.000000 -0.000000 -0.000000 8.207792 -6.751710 -1.599556 -0.074518 -0.000003 0.000081 -0.000002 -44.370014 0.346960 0.148822 0.000002 0.000000 -0.000001 -44.423664 -3.044403 -0.074314 0.000000 -0.000002 -0.000004 -8.728671 10.710558 0.000007 -0.000000 -0.000000 0.000000 -0.000680 9.278137 -0.000000 0.000000 -0.000001 
